<?xml version="1.0" encoding="utf-8"?>
<!-- Generator: Adobe Illustrator 25.0.0, SVG Export Plug-In . SVG Version: 6.00 Build 0)  -->
<svg version="1.1" id="Layer_1" xmlns="http://www.w3.org/2000/svg" xmlns:xlink="http://www.w3.org/1999/xlink" x="0px" y="0px"
	 viewBox="0 0 60 60" style="enable-background:new 0 0 60 60;" xml:space="preserve">
<style type="text/css">
	.st0{fill:#9E3223;}
	.st1{fill:#9B311A;}
</style>
<path class="st0" d="M30,2c15.4,0,28,12.6,28,28S45.4,58,30,58S2,45.4,2,30S14.6,2,30,2 M30,0C13.4,0,0,13.4,0,30s13.4,30,30,30
	s30-13.4,30-30S46.6,0,30,0L30,0z"/>
<path class="st1" d="M44.5,21.5c0.7-0.7,0.7-1.8,0-2.4l-3.6-3.6c-0.7-0.7-1.8-0.7-2.4,0l0,0L18.8,35.2L17,39.7l0,0L15,45l5.3-2l0,0
	l4.5-1.7L44.5,21.5L44.5,21.5z M19.5,42.2l-1.7-1.7l1.3-3.5l3.8,3.8L19.5,42.2z M38.1,17.3c0.1,0.2,0.2,0.4,0.4,0.6l0.5,0.5
	L22.4,34.9l0.7,0.7l16.5-16.5l1.2,1.2L24.3,36.8l0.7,0.7L41.6,21l0.5,0.5c0.2,0.2,0.4,0.3,0.6,0.4L24.8,39.8l-4.6-4.6L38.1,17.3z"/>
</svg>
