<?xml version="1.0" encoding="utf-8"?>
<!-- Generator: Adobe Illustrator 25.0.0, SVG Export Plug-In . SVG Version: 6.00 Build 0)  -->
<svg version="1.1" id="Layer_1" xmlns="http://www.w3.org/2000/svg" xmlns:xlink="http://www.w3.org/1999/xlink" x="0px" y="0px"
	 viewBox="0 0 60 60" style="enable-background:new 0 0 60 60;" xml:space="preserve">
<style type="text/css">
	.st0{fill:#9E3223;}
</style>
<path class="st0" d="M30,2c15.4,0,28,12.6,28,28S45.4,58,30,58S2,45.4,2,30S14.6,2,30,2 M30,0C13.4,0,0,13.4,0,30s13.4,30,30,30
	s30-13.4,30-30S46.6,0,30,0L30,0z"/>
<g>
	<path class="st0" d="M18.5,41.5C18.5,41.5,18.5,41.5,18.5,41.5c-0.4-0.4-0.6-0.9-0.6-1.4c0-0.5,0.2-1,0.6-1.3
		c0.4-0.4,0.8-0.5,1.4-0.5c0.5,0,1,0.2,1.3,0.6c0,0,0,0,0,0c0.7,0.8,0.7,2,0,2.7C20.4,42.2,19.2,42.2,18.5,41.5z M20.5,39.5
		c-0.2-0.2-0.4-0.3-0.7-0.3c-0.3,0-0.5,0.1-0.7,0.3c-0.2,0.2-0.3,0.4-0.3,0.7c0,0.3,0.1,0.5,0.3,0.7c0.3,0.3,1,0.4,1.3,0
		C20.9,40.5,20.9,39.9,20.5,39.5C20.5,39.5,20.5,39.5,20.5,39.5z"/>
	<path class="st0" d="M39.5,16.4l-4,4l-0.4,0.4l0.1,0.5l0.5,2.2L36,24l0.6,0.1l2.2,0.5l0.5,0.1l0.4-0.4l4-4c1,2.6,0.4,5.6-1.6,7.6
		c-1.3,1.3-3.1,2.1-5,2.1c-0.6,0-1.3-0.1-1.9-0.3l-0.5-0.1l-0.4,0.4L20.9,43.4c-0.4,0.4-1,0.6-1.5,0.6c-0.6,0-1.1-0.2-1.5-0.6
		l-1.2-1.2c-0.4-0.4-0.6-1-0.6-1.5c0-0.6,0.2-1.1,0.6-1.5l13.2-13.2l0.4-0.4L30,25c-0.3-1.1-0.3-2.3-0.1-3.4c0.3-1.3,1-2.5,1.9-3.5
		c1.3-1.3,3.1-2.1,5-2.1C37.8,16,38.7,16.1,39.5,16.4 M43.9,18.8l-5,5l-2.2-0.5l-0.5-2.2l5-5L40,15.6c-1-0.4-2-0.6-3.1-0.6
		c-2.2,0-4.2,0.8-5.7,2.4c-1.1,1.1-1.9,2.5-2.2,4c-0.3,1.3-0.2,2.6,0.1,3.9L15.9,38.4C15.3,39,15,39.8,15,40.6
		c0,0.8,0.3,1.6,0.9,2.2c0,0,0,0,0,0l1.2,1.2c0.6,0.6,1.4,0.9,2.2,0.9c0.8,0,1.6-0.3,2.2-0.9l13.2-13.2c0.7,0.2,1.4,0.3,2.1,0.3
		c0,0,0,0,0,0c2.2,0,4.2-0.8,5.7-2.4c2.3-2.3,3-5.8,1.8-8.8L43.9,18.8L43.9,18.8z"/>
</g>
</svg>
