<?xml version="1.0" encoding="utf-8"?>
<!-- Generator: Adobe Illustrator 25.0.0, SVG Export Plug-In . SVG Version: 6.00 Build 0)  -->
<svg version="1.1" id="Layer_1" xmlns="http://www.w3.org/2000/svg" xmlns:xlink="http://www.w3.org/1999/xlink" x="0px" y="0px"
	 viewBox="0 0 60 60" style="enable-background:new 0 0 60 60;" xml:space="preserve">
<style type="text/css">
	.st0{fill:#9E3223;}
</style>
<path class="st0" d="M30,2c15.4,0,28,12.6,28,28S45.4,58,30,58S2,45.4,2,30S14.6,2,30,2 M30,0C13.4,0,0,13.4,0,30s13.4,30,30,30
	s30-13.4,30-30S46.6,0,30,0L30,0z"/>
<g>
	<path class="st0" d="M27.2,23.9h-2.8c-0.3,0-0.6,0.3-0.6,0.6v2.3h-1.1c-2.2,0-4.1,1.6-4.5,3.8l-2.2,6.3c0,0,0,0.1,0,0.1l-0.6,7.4
		c0,0.3,0.2,0.6,0.5,0.6h0h27.8c0.3,0,0.6-0.2,0.6-0.6c0,0,0,0,0,0L43.9,37c0-0.1,0-0.1,0-0.2v0l-2.7-6.4c-0.4-2.1-2.3-3.7-4.4-3.7
		h-0.6v-2.3c0-0.3-0.3-0.6-0.6-0.6h-2.8c-0.3,0-0.6,0.3-0.6,0.6v2.3h-4.4v-2.3C27.8,24.1,27.5,23.9,27.2,23.9z M32.8,27.9
		c0.3,0,0.6-0.3,0.6-0.6V25H35v2.3c0,0.3,0.3,0.6,0.6,0.6h1.2c1.7,0,3.1,1.2,3.3,2.8c0,0,0,0.1,0,0.1l2.4,5.7l0.3,1.1l0.5,6.3H16.7
		l0.5-6.3l0.3-1.1l2-5.6c0,0,0-0.1,0-0.1c0.2-1.7,1.7-2.9,3.4-2.9h1.6c0.3,0,0.6-0.3,0.6-0.6V25h1.7v2.3c0,0.3,0.3,0.6,0.6,0.6H32.8
		z"/>
	<path class="st0" d="M46,26.1c0.4-0.4,0.6-0.9,0.5-1.4L46.1,21c-0.2-2.5-2.6-4.5-4.9-4.9l-1.3-0.2c-7-1.2-14.1-1.2-21.1,0
		c-2.5,0.4-4.7,2.7-4.9,5.1l-0.4,3.7c-0.1,0.5,0.1,1,0.5,1.4c0.3,0.3,0.7,0.5,1.2,0.5c0.1,0,0.1,0,0.2,0l6-0.8
		c0.8-0.1,1.5-0.8,1.5-1.7V22c0-0.4,0.3-0.8,0.8-0.9c4.3-0.6,8.6-0.6,12.9,0c0.4,0.1,0.8,0.4,0.8,0.9v2.1c0,0.8,0.6,1.6,1.5,1.7
		l6,0.8C45.1,26.6,45.6,26.4,46,26.1z M21.7,24.1c0,0.3-0.2,0.5-0.5,0.6l-6,0.8c-0.2,0-0.3,0-0.4-0.2c-0.1-0.1-0.2-0.3-0.2-0.5
		l0.2-1.5l6.9-1V24.1z M36.6,20c-4.4-0.6-8.8-0.6-13.2,0c-0.7,0.1-1.2,0.5-1.5,1.1l-7,1l0.1-1.1c0.1-1.8,1.9-3.7,4-4.1
		c6.9-1.2,13.9-1.2,20.8,0l1.3,0.2c1.9,0.3,3.9,1.8,4,3.9l0.1,1.1l-7-1C37.8,20.5,37.3,20.1,36.6,20z M38.3,24.1v-1.8l6.9,1l0.2,1.5
		c0,0.2,0,0.4-0.2,0.5c-0.1,0.1-0.3,0.2-0.4,0.2l-6-0.8C38.5,24.6,38.3,24.4,38.3,24.1z"/>
	<g>
		<rect x="25.7" y="30.1" class="st0" width="2.1" height="2.1"/>
		<rect x="29" y="30.1" class="st0" width="2.1" height="2.1"/>
		<rect x="32.2" y="30.1" class="st0" width="2.1" height="2.1"/>
		<rect x="25.7" y="33.4" class="st0" width="2.1" height="2.1"/>
		<rect x="29" y="33.4" class="st0" width="2.1" height="2.1"/>
		<rect x="32.2" y="33.4" class="st0" width="2.1" height="2.1"/>
		<rect x="25.7" y="36.7" class="st0" width="2.1" height="2.1"/>
		<rect x="29" y="36.7" class="st0" width="2.1" height="2.1"/>
		<rect x="29" y="40" class="st0" width="2.1" height="2.1"/>
		<rect x="32.2" y="36.7" class="st0" width="2.1" height="2.1"/>
	</g>
</g>
</svg>
