<svg xmlns="http://www.w3.org/2000/svg" xmlns:xlink="http://www.w3.org/1999/xlink" version="1.1" id="Layer_1" x="0px" y="0px" viewBox="0 0 543 97.3" style="enable-background:new 0 0 543 97.3;" xml:space="preserve" width="543"  height="97.3" >
<style type="text/css">
	.st0{fill-rule:evenodd;clip-rule:evenodd;fill:#2C2B2A;}
	.st1{fill-rule:evenodd;clip-rule:evenodd;fill:#9E3223;}
	.st2{fill-rule:evenodd;clip-rule:evenodd;fill:#D69889;}
	.st3{fill-rule:evenodd;clip-rule:evenodd;fill:#BC6754;}
</style>
<g>
	<g>
		<path class="st0" d="M113.8,61.9c-3.2,0-6.2-0.5-9-1.4c-2.8-0.9-5.3-2.5-7.4-4.6s-3.8-4.9-5-8.3c-1.2-3.4-1.8-7.6-1.8-12.6    c0-5,0.6-9.2,1.8-12.6c1.2-3.4,2.9-6.2,5-8.3c2.1-2.1,4.6-3.6,7.4-4.6c2.8-0.9,5.8-1.4,9-1.4h26.2v10.5h-24.8    c-1.7,0-3.4,0.3-4.9,0.8c-1.5,0.5-2.9,1.4-4,2.7c-1.2,1.3-2.1,3-2.7,5.1c-0.7,2.1-1,4.8-1,8c0,3.2,0.3,5.8,1,7.9    c0.7,2.1,1.6,3.8,2.7,5.1c1.2,1.3,2.5,2.2,4,2.7c1.5,0.5,3.2,0.8,4.9,0.8H128V40.2h-10.6V29.7h22.6v32.2H113.8L113.8,61.9z     M146.8,8h12v32.2c0,2.2,0.3,4,1,5.4c0.7,1.4,1.6,2.6,2.7,3.5c1.2,0.9,2.5,1.5,4,1.8c1.5,0.4,3.2,0.5,5,0.5h14.2v10.5h-14.2    c-3.4,0-6.6-0.4-9.6-1.1c-3-0.7-5.6-1.9-7.9-3.6c-2.3-1.7-4.1-3.9-5.4-6.7c-1.3-2.8-2-6.2-2-10.3V8L146.8,8z M190.2,8h16.4    l13.5,37.4c1.1-3,2.2-6,3.3-9.2c1.1-3.2,2.3-6.3,3.5-9.6c1.2-3.2,2.3-6.4,3.5-9.6c1.1-3.2,2.2-6.2,3.3-9.1H250v53.9h-11.7V28.5    l-12.1,33.4H214l-11.8-33.4v33.4h-12V8z"/>
		<path class="st1" d="M261.5,51.4h28.1c1.8,0,3.3-0.4,4.5-1.2c1.2-0.8,1.8-2.3,1.8-4.4s-0.6-3.6-1.9-4.4c-1.3-0.8-2.8-1.2-4.5-1.2    h-12.7c-2.6,0-4.9-0.3-7-0.8c-2.1-0.6-3.9-1.5-5.3-2.7c-1.5-1.3-2.6-2.9-3.4-5c-0.8-2.1-1.2-4.6-1.2-7.5c0-3.1,0.4-5.6,1.2-7.7    c0.8-2.1,1.9-3.7,3.4-5c1.5-1.3,3.2-2.1,5.3-2.7c2.1-0.5,4.4-0.8,7-0.8h29.6v10.5h-28.1c-1.7,0-3.2,0.4-4.5,1.2    c-1.2,0.8-1.8,2.3-1.8,4.4c0,2.1,0.6,3.6,1.8,4.4c1.2,0.8,2.7,1.2,4.5,1.2h12.7c2.6,0,4.9,0.3,7,0.8c2.1,0.5,3.9,1.5,5.3,2.7    c1.5,1.3,2.6,3,3.4,5c0.8,2.1,1.2,4.6,1.2,7.5c0,3.1-0.4,5.6-1.2,7.7c-0.8,2.1-1.9,3.7-3.4,4.9c-1.5,1.2-3.3,2.1-5.4,2.7    c-2.1,0.5-4.4,0.8-7,0.8h-29.6V51.4L261.5,51.4z M335.6,66.9c1.8,0,3.5-0.4,4.9-1.1c1.4-0.7,2.2-2,2.3-3.9h-11.4    c-2.8,0-5.3-0.3-7.6-0.9c-2.3-0.6-4.2-1.6-5.9-3c-1.6-1.4-2.9-3.2-3.8-5.5c-0.9-2.3-1.3-5-1.3-8.3V15.5H324v28.7    c0,2.9,0.7,5,2.2,6.1c1.5,1.1,3.6,1.7,6.4,1.7h10.1V15.5H354v45.7c0,2.9-0.4,5.4-1.2,7.4c-0.8,2-1.9,3.6-3.4,4.9    c-1.4,1.2-3.1,2.1-5,2.7c-1.9,0.5-3.9,0.8-6.1,0.8h-22.6v-9.9H335.6L335.6,66.9z M361.6,51.9h24.3c1.4,0,2.7-0.3,3.7-0.9    c1.1-0.6,1.6-1.6,1.6-3.1c0-1.6-0.5-2.7-1.6-3.3c-1.1-0.6-2.3-0.9-3.7-0.9h-10.9c-2.3,0-4.3-0.2-6.1-0.7c-1.8-0.5-3.3-1.2-4.6-2.3    c-1.3-1.1-2.2-2.6-2.9-4.4c-0.7-1.8-1-4.1-1-6.8c0-2.7,0.3-4.9,1-6.7c0.7-1.8,1.7-3.2,2.9-4.3c1.3-1.1,2.8-1.8,4.6-2.3    c1.8-0.5,3.8-0.7,6.1-0.7h25.5v9.9h-24.3c-1.5,0-2.8,0.3-3.8,0.9c-1.1,0.6-1.6,1.7-1.6,3.2c0,1.6,0.5,2.7,1.6,3.3    c1.1,0.6,2.3,0.9,3.8,0.9h10.9c2.2,0,4.2,0.2,6,0.7c1.8,0.5,3.4,1.3,4.6,2.4c1.3,1.1,2.2,2.6,2.9,4.4c0.7,1.8,1,4.1,1,6.7    c0,2.7-0.3,4.9-1,6.7c-0.7,1.8-1.7,3.2-2.9,4.3c-1.3,1.1-2.8,1.8-4.6,2.3c-1.8,0.5-3.8,0.7-6,0.7h-25.5V51.9L361.6,51.9z     M413.3,25.2h-7.5v-9.9h7.5v-11h11.2v11h10.6v9.9h-10.6v22.5c0,1.6,0.6,2.8,1.7,3.4c1.1,0.6,2.4,0.9,3.9,0.9h4.9v10H429    c-2.2,0-4.2-0.3-6.1-0.8c-1.9-0.6-3.6-1.5-5-2.7c-1.4-1.2-2.5-2.8-3.3-4.9c-0.8-2-1.2-4.4-1.2-7.3V25.2L413.3,25.2z M458.9,61.9    c-2.8,0-5.4-0.4-7.8-1.2c-2.4-0.8-4.6-2.1-6.4-4c-1.8-1.8-3.3-4.2-4.3-7.2c-1.1-3-1.6-6.6-1.6-10.9c0-4.3,0.5-7.9,1.6-10.9    c1.1-3,2.5-5.3,4.3-7.2c1.8-1.8,4-3.1,6.4-3.9c2.4-0.8,5-1.2,7.8-1.2h17.5v9.9h-16.2c-2.3,0-4.3,0.6-6.1,1.8    c-1.7,1.2-3,3.4-3.6,6.4h25.9v10h-25.9c0.3,1.6,0.8,2.9,1.4,4c0.6,1.1,1.3,1.9,2.2,2.5c0.8,0.6,1.8,1.1,2.8,1.3    c1,0.3,2.1,0.4,3.3,0.4h16.2v10H458.9L458.9,61.9z M483.8,15.5h42.1c2.4,0,4.6,0.3,6.7,0.9c2.1,0.6,3.9,1.6,5.4,3    c1.5,1.4,2.8,3.2,3.7,5.5c0.9,2.3,1.3,5,1.3,8.3v28.7h-11.2V33.2c0-1.4-0.2-2.7-0.6-3.7c-0.4-1-0.9-1.8-1.5-2.4    c-0.6-0.6-1.4-1.1-2.3-1.3c-0.9-0.3-1.8-0.4-2.8-0.4H519v36.5h-11.2V25.4h-12.7v36.5h-11.2V15.5z"/>
	</g>
	<g>
		<path class="st2" d="M59.3,0.2l26.5,12.6c0.8,0.4,1.2,1.4,0.8,2.2c-0.1,0.2-0.3,0.5-0.7,0.7l-3.3,2l-9.3,5.6    c-0.7,0.4-0.9,0.4-1.6,0.1l-19.3-9.1c-0.8-0.4-1.2-1.4-0.8-2.2l5.4-11C57.5,0.1,58.4-0.2,59.3,0.2z"/>
		<path class="st2" d="M80.5,24.7l-3.2-1.6l7.7-4.4l-2.6,5.2C81.9,25,81.7,25.4,80.5,24.7z"/>
		<polygon class="st2" points="45.9,17.4 52.4,19.6 52.4,22.5 59.7,22.5 61.1,20 64.6,22 61.7,27.2 61.6,27.2 52.4,27.2 52.4,30.5     45.9,32.7   "/>
	</g>
	<g>
		<path class="st3" d="M42.4,20l32.4,15.4c1,0.5,1.4,1.7,0.9,2.7c-0.1,0.2-0.4,0.6-0.8,0.8l-4,2.5l-11.4,6.9c-0.9,0.5-1,0.5-1.9,0.1    L34,37.1c-1-0.5-1.4-1.7-0.9-2.7l6.6-13.5C40.2,19.9,41.4,19.5,42.4,20z"/>
		<path class="st3" d="M68.3,50l-3.9-1.9l9.4-5.4L70.6,49C70,50.3,69.8,50.8,68.3,50z"/>
		<polygon class="st3" points="26,41.1 34,43.7 34,47.2 42.9,47.2 44.6,44.2 48.9,46.7 45.3,53.1 45.2,53 34,53 34,57 26,59.7   "/>
	</g>
	<g>
		<path class="st1" d="M19.8,45.1l39.3,18.6c1.2,0.6,1.7,2.1,1.1,3.3c-0.1,0.3-0.5,0.7-1,1l-4.9,3l-13.8,8.3c-1,0.6-1.3,0.6-2.3,0.1    L9.7,65.8c-1.2-0.6-1.7-2.1-1.1-3.3l8-16.3C17.2,45,18.6,44.5,19.8,45.1z"/>
		<path class="st1" d="M51.2,81.5l-4.7-2.3l11.4-6.6l-3.8,7.7C53.3,81.9,53.1,82.4,51.2,81.5z"/>
		<polygon class="st1" points="0,70.7 9.7,73.9 9.7,78.1 20.4,78.1 22.5,74.5 27.8,77.5 23.4,85.2 23.2,85.1 9.7,85.1 9.7,90     0,93.3   "/>
	</g>
	<path class="st0" d="M254.5,90.9h7.2c0.5,0,0.8-0.1,1.2-0.3c0.3-0.2,0.5-0.6,0.5-1.1c0-0.5-0.2-0.9-0.5-1.1   c-0.3-0.2-0.7-0.3-1.1-0.3h-3.2c-0.7,0-1.2-0.1-1.8-0.2c-0.5-0.1-1-0.4-1.4-0.7c-0.4-0.3-0.7-0.7-0.9-1.3c-0.2-0.5-0.3-1.2-0.3-1.9   c0-0.8,0.1-1.4,0.3-2c0.2-0.5,0.5-0.9,0.9-1.3c0.4-0.3,0.8-0.5,1.4-0.7c0.5-0.1,1.1-0.2,1.8-0.2h7.5v2.7h-7.2   c-0.4,0-0.8,0.1-1.1,0.3c-0.3,0.2-0.5,0.6-0.5,1.1c0,0.5,0.2,0.9,0.5,1.1c0.3,0.2,0.7,0.3,1.1,0.3h3.2c0.7,0,1.2,0.1,1.8,0.2   c0.5,0.1,1,0.4,1.4,0.7c0.4,0.3,0.7,0.8,0.9,1.3c0.2,0.5,0.3,1.2,0.3,1.9c0,0.8-0.1,1.4-0.3,2c-0.2,0.5-0.5,0.9-0.9,1.3   c-0.4,0.3-0.8,0.5-1.4,0.7c-0.5,0.1-1.1,0.2-1.8,0.2h-7.5V90.9L254.5,90.9z M270.4,77.9h2.9v2.8h-2.9V77.9L270.4,77.9z M270.4,81.7   h2.9v11.8h-2.9V81.7L270.4,81.7z M278,91h6.2c0.4,0,0.7-0.1,1-0.2c0.3-0.2,0.4-0.4,0.4-0.8c0-0.4-0.1-0.7-0.4-0.8   c-0.3-0.2-0.6-0.2-1-0.2h-2.8c-0.6,0-1.1-0.1-1.5-0.2c-0.5-0.1-0.8-0.3-1.2-0.6c-0.3-0.3-0.6-0.7-0.7-1.1c-0.2-0.5-0.3-1-0.3-1.7   c0-0.7,0.1-1.2,0.3-1.7c0.2-0.5,0.4-0.8,0.7-1.1s0.7-0.5,1.2-0.6c0.5-0.1,1-0.2,1.5-0.2h6.5v2.5h-6.2c-0.4,0-0.7,0.1-1,0.2   c-0.3,0.2-0.4,0.4-0.4,0.8c0,0.4,0.1,0.7,0.4,0.8c0.3,0.2,0.6,0.2,1,0.2h2.8c0.6,0,1.1,0.1,1.5,0.2c0.5,0.1,0.9,0.3,1.2,0.6   c0.3,0.3,0.6,0.7,0.7,1.1c0.2,0.5,0.3,1,0.3,1.7c0,0.7-0.1,1.2-0.3,1.7c-0.2,0.5-0.4,0.8-0.7,1.1c-0.3,0.3-0.7,0.5-1.2,0.6   c-0.5,0.1-1,0.2-1.5,0.2H278V91L278,91z M294.1,84.2h-1.9v-2.5h1.9v-2.8h2.9v2.8h2.7v2.5h-2.7v5.7c0,0.4,0.1,0.7,0.4,0.9   c0.3,0.2,0.6,0.2,1,0.2h1.3v2.5H298c-0.5,0-1.1-0.1-1.6-0.2c-0.5-0.1-0.9-0.4-1.3-0.7c-0.4-0.3-0.6-0.7-0.8-1.2   c-0.2-0.5-0.3-1.1-0.3-1.9V84.2L294.1,84.2z M308.5,93.5c-0.7,0-1.4-0.1-2-0.3c-0.6-0.2-1.2-0.5-1.6-1c-0.5-0.5-0.8-1.1-1.1-1.8   c-0.3-0.8-0.4-1.7-0.4-2.8s0.1-2,0.4-2.8c0.3-0.8,0.6-1.4,1.1-1.8c0.5-0.5,1-0.8,1.6-1c0.6-0.2,1.3-0.3,2-0.3h4.4v2.5h-4.1   c-0.6,0-1.1,0.2-1.5,0.5c-0.4,0.3-0.8,0.9-0.9,1.6h6.6v2.5h-6.6c0.1,0.4,0.2,0.7,0.4,1c0.2,0.3,0.3,0.5,0.6,0.6   c0.2,0.2,0.5,0.3,0.7,0.3c0.3,0.1,0.5,0.1,0.8,0.1h4.1v2.5H308.5L308.5,93.5z M317.7,81.7h10.7c0.6,0,1.2,0.1,1.7,0.2   c0.5,0.2,1,0.4,1.4,0.8c0.4,0.4,0.7,0.8,0.9,1.4c0.2,0.6,0.3,1.3,0.3,2.1v7.3h-2.9v-7.3c0-0.4,0-0.7-0.1-0.9   c-0.1-0.3-0.2-0.5-0.4-0.6c-0.2-0.2-0.4-0.3-0.6-0.3c-0.2-0.1-0.5-0.1-0.7-0.1h-1.4v9.3h-2.9v-9.3h-3.2v9.3h-2.9V81.7L317.7,81.7z    M336.8,89.8c0-0.7,0.1-1.3,0.3-1.8c0.2-0.5,0.4-0.9,0.8-1.1c0.3-0.3,0.7-0.5,1.1-0.6c0.4-0.1,0.9-0.2,1.4-0.2h4.4   c-0.1-0.7-0.3-1.1-0.8-1.4c-0.5-0.3-1.1-0.4-1.8-0.4h-4.7v-2.5h5c0.7,0,1.3,0.1,2,0.2c0.6,0.2,1.2,0.4,1.6,0.8   c0.5,0.4,0.8,0.8,1.1,1.4c0.3,0.6,0.4,1.3,0.4,2.1v7.3h-7.3c-0.5,0-1-0.1-1.4-0.2c-0.4-0.1-0.8-0.3-1.1-0.6   c-0.3-0.3-0.6-0.7-0.8-1.2C336.9,91.1,336.8,90.5,336.8,89.8L336.8,89.8z M339.6,89.8c0,0.5,0.1,0.8,0.4,1c0.2,0.2,0.5,0.3,0.9,0.3   h3.9v-2.5h-3.9c-0.3,0-0.6,0.1-0.9,0.3C339.7,89,339.6,89.3,339.6,89.8L339.6,89.8z M352.2,91h6.2c0.4,0,0.7-0.1,1-0.2   c0.3-0.2,0.4-0.4,0.4-0.8c0-0.4-0.1-0.7-0.4-0.8c-0.3-0.2-0.6-0.2-1-0.2h-2.8c-0.6,0-1.1-0.1-1.5-0.2c-0.5-0.1-0.8-0.3-1.2-0.6   c-0.3-0.3-0.6-0.7-0.7-1.1c-0.2-0.5-0.3-1-0.3-1.7c0-0.7,0.1-1.2,0.3-1.7c0.2-0.5,0.4-0.8,0.7-1.1c0.3-0.3,0.7-0.5,1.2-0.6   c0.5-0.1,1-0.2,1.5-0.2h6.5v2.5h-6.2c-0.4,0-0.7,0.1-1,0.2c-0.3,0.2-0.4,0.4-0.4,0.8c0,0.4,0.1,0.7,0.4,0.8c0.3,0.2,0.6,0.2,1,0.2   h2.8c0.6,0,1.1,0.1,1.5,0.2c0.5,0.1,0.9,0.3,1.2,0.6c0.3,0.3,0.6,0.7,0.7,1.1c0.2,0.5,0.3,1,0.3,1.7c0,0.7-0.1,1.2-0.3,1.7   c-0.2,0.5-0.4,0.8-0.7,1.1c-0.3,0.3-0.7,0.5-1.2,0.6c-0.5,0.1-1,0.2-1.5,0.2h-6.5V91L352.2,91z M378.1,93.5c-0.7,0-1.4-0.1-2-0.3   c-0.6-0.2-1.2-0.5-1.6-1c-0.5-0.5-0.8-1.1-1.1-1.8c-0.3-0.8-0.4-1.7-0.4-2.8s0.1-2,0.4-2.8c0.3-0.8,0.6-1.4,1.1-1.8   c0.5-0.5,1-0.8,1.6-1c0.6-0.2,1.3-0.3,2-0.3h2.9v-3.8h2.9v15.6H378.1L378.1,93.5z M381,91v-6.7h-2.6c-0.4,0-0.7,0.1-1,0.2   c-0.3,0.1-0.6,0.3-0.8,0.5c-0.2,0.3-0.4,0.6-0.6,1c-0.1,0.4-0.2,1-0.2,1.6c0,0.7,0.1,1.2,0.2,1.6c0.1,0.4,0.3,0.8,0.6,1   c0.2,0.3,0.5,0.4,0.8,0.5c0.3,0.1,0.6,0.2,1,0.2H381L381,91z M393.2,93.5c-0.7,0-1.4-0.1-2-0.3c-0.6-0.2-1.2-0.5-1.6-1   c-0.5-0.5-0.8-1.1-1.1-1.8c-0.3-0.8-0.4-1.7-0.4-2.8s0.1-2,0.4-2.8c0.3-0.8,0.6-1.4,1.1-1.8c0.5-0.5,1-0.8,1.6-1   c0.6-0.2,1.3-0.3,2-0.3h4.4v2.5h-4.1c-0.6,0-1.1,0.2-1.5,0.5c-0.4,0.3-0.8,0.9-0.9,1.6h6.6v2.5h-6.6c0.1,0.4,0.2,0.7,0.4,1   c0.2,0.3,0.3,0.5,0.6,0.6c0.2,0.2,0.5,0.3,0.7,0.3c0.3,0.1,0.5,0.1,0.8,0.1h4.1v2.5H393.2L393.2,93.5z M409.1,90.9h7.2   c0.5,0,0.8-0.1,1.2-0.3c0.3-0.2,0.5-0.6,0.5-1.1c0-0.5-0.2-0.9-0.5-1.1c-0.3-0.2-0.7-0.3-1.1-0.3h-3.2c-0.7,0-1.2-0.1-1.8-0.2   c-0.5-0.1-1-0.4-1.4-0.7c-0.4-0.3-0.7-0.7-0.9-1.3c-0.2-0.5-0.3-1.2-0.3-1.9c0-0.8,0.1-1.4,0.3-2c0.2-0.5,0.5-0.9,0.9-1.3   c0.4-0.3,0.8-0.5,1.4-0.7c0.5-0.1,1.1-0.2,1.8-0.2h7.5v2.7h-7.2c-0.4,0-0.8,0.1-1.1,0.3c-0.3,0.2-0.5,0.6-0.5,1.1   c0,0.5,0.2,0.9,0.5,1.1c0.3,0.2,0.7,0.3,1.1,0.3h3.2c0.7,0,1.2,0.1,1.8,0.2c0.5,0.1,1,0.4,1.4,0.7c0.4,0.3,0.7,0.8,0.9,1.3   c0.2,0.5,0.3,1.2,0.3,1.9c0,0.8-0.1,1.4-0.3,2c-0.2,0.5-0.5,0.9-0.9,1.3c-0.4,0.3-0.8,0.5-1.4,0.7c-0.5,0.1-1.1,0.2-1.8,0.2h-7.5   V90.9L409.1,90.9z M430,93.5c-0.7,0-1.4-0.1-2-0.3c-0.6-0.2-1.2-0.5-1.6-1c-0.5-0.5-0.8-1.1-1.1-1.8c-0.3-0.8-0.4-1.7-0.4-2.8   s0.1-2,0.4-2.8c0.3-0.8,0.6-1.4,1.1-1.8c0.5-0.5,1-0.8,1.6-1c0.6-0.2,1.3-0.3,2-0.3h4.4v2.5h-4.1c-0.6,0-1.1,0.2-1.5,0.5   c-0.4,0.3-0.8,0.9-0.9,1.6h6.6v2.5h-6.6c0.1,0.4,0.2,0.7,0.4,1c0.2,0.3,0.3,0.5,0.6,0.6c0.2,0.2,0.5,0.3,0.7,0.3   c0.3,0.1,0.5,0.1,0.8,0.1h4.1v2.5H430L430,93.5z M444.8,94.8c0.5,0,0.9-0.1,1.2-0.3c0.4-0.2,0.5-0.5,0.6-1h-2.9   c-0.7,0-1.4-0.1-2-0.3c-0.6-0.2-1.2-0.5-1.6-1c-0.5-0.5-0.8-1.1-1.1-1.8c-0.3-0.8-0.4-1.7-0.4-2.8s0.1-2,0.4-2.8   c0.3-0.8,0.6-1.4,1.1-1.8c0.5-0.5,1-0.8,1.6-1c0.6-0.2,1.3-0.3,2-0.3h5.8v11.6c0,0.7-0.1,1.4-0.3,1.9c-0.2,0.5-0.5,0.9-0.9,1.2   c-0.4,0.3-0.8,0.5-1.3,0.7c-0.5,0.1-1,0.2-1.5,0.2h-6.1v-2.5H444.8L444.8,94.8z M446.6,91v-6.7H444c-0.4,0-0.7,0.1-1,0.2   c-0.3,0.1-0.6,0.3-0.8,0.5c-0.2,0.3-0.4,0.6-0.6,1c-0.1,0.4-0.2,1-0.2,1.6c0,0.7,0.1,1.2,0.2,1.6c0.1,0.4,0.3,0.8,0.6,1   c0.2,0.3,0.5,0.4,0.8,0.5c0.3,0.1,0.6,0.2,1,0.2H446.6L446.6,91z M454,81.7h2.9V89c0,0.4,0.1,0.7,0.2,0.9c0.1,0.2,0.3,0.5,0.5,0.6   c0.2,0.2,0.5,0.3,0.8,0.3c0.3,0.1,0.6,0.1,1,0.1h2.2v-9.3h2.9v11.8h-5.4c-0.7,0-1.4-0.1-2-0.2c-0.6-0.2-1.2-0.4-1.6-0.8   c-0.5-0.4-0.8-0.8-1.1-1.4c-0.3-0.6-0.4-1.3-0.4-2.1V81.7L454,81.7z M469.1,86.2c0-0.8,0.1-1.5,0.4-2.1c0.3-0.6,0.6-1,1.1-1.4   c0.5-0.4,1-0.6,1.6-0.8c0.6-0.2,1.3-0.2,2-0.2h3.9v5h-2.9v-2.4h-0.7c-0.4,0-0.7,0-1,0.1c-0.3,0.1-0.6,0.2-0.8,0.3   c-0.2,0.2-0.4,0.4-0.5,0.6c-0.1,0.3-0.2,0.6-0.2,0.9v7.3h-2.9V86.2L469.1,86.2z M481.6,89.8c0-0.7,0.1-1.3,0.3-1.8   c0.2-0.5,0.4-0.9,0.8-1.1c0.3-0.3,0.7-0.5,1.1-0.6c0.4-0.1,0.9-0.2,1.4-0.2h4.4c-0.1-0.7-0.3-1.1-0.8-1.4c-0.5-0.3-1.1-0.4-1.8-0.4   h-4.7v-2.5h5c0.7,0,1.3,0.1,2,0.2c0.6,0.2,1.2,0.4,1.6,0.8c0.5,0.4,0.8,0.8,1.1,1.4c0.3,0.6,0.4,1.3,0.4,2.1v7.3h-7.3   c-0.5,0-1-0.1-1.4-0.2c-0.4-0.1-0.8-0.3-1.1-0.6c-0.3-0.3-0.6-0.7-0.8-1.2C481.7,91.1,481.6,90.5,481.6,89.8L481.6,89.8z    M484.4,89.8c0,0.5,0.1,0.8,0.4,1c0.2,0.2,0.5,0.3,0.9,0.3h3.9v-2.5h-3.9c-0.3,0-0.6,0.1-0.9,0.3C484.6,89,484.4,89.3,484.4,89.8   L484.4,89.8z M497,81.7h5.4c0.7,0,1.4,0.1,2,0.2c0.6,0.2,1.2,0.4,1.6,0.8c0.5,0.4,0.8,0.8,1.1,1.4c0.3,0.6,0.4,1.3,0.4,2.1v7.3   h-2.9v-7.3c0-0.4-0.1-0.7-0.2-0.9c-0.1-0.3-0.3-0.5-0.5-0.6c-0.2-0.2-0.5-0.3-0.8-0.3c-0.3-0.1-0.6-0.1-1-0.1h-2.2v9.3H497V81.7   L497,81.7z M514.6,95.5c0.4,0.1,0.7,0.2,1,0.3c0.3,0.1,0.7,0.2,1.1,0.2c0.1,0,0.2,0,0.3,0c0.1,0,0.2-0.1,0.3-0.1   c0.1,0,0.2-0.1,0.2-0.2c0.1-0.1,0.1-0.2,0.1-0.3c0-0.2-0.1-0.3-0.2-0.4c-0.1-0.1-0.3-0.1-0.5-0.1c-0.2,0-0.5,0-0.8,0.1   c-0.3,0.1-0.5,0.1-0.6,0.1l0.3-1.7c-0.6-0.1-1.2-0.2-1.8-0.4c-0.5-0.2-1-0.6-1.4-1.1c-0.4-0.5-0.7-1.1-1-1.8   c-0.2-0.7-0.3-1.6-0.3-2.6c0-1.1,0.1-2,0.4-2.8s0.6-1.4,1.1-1.8c0.5-0.5,1-0.8,1.6-1c0.6-0.2,1.3-0.3,2-0.3h4.4v2.5h-4.1   c-0.4,0-0.7,0.1-1,0.2c-0.3,0.1-0.6,0.3-0.8,0.5c-0.2,0.3-0.4,0.6-0.6,1c-0.1,0.4-0.2,1-0.2,1.6c0,0.7,0.1,1.2,0.2,1.6   c0.1,0.4,0.3,0.8,0.6,1c0.2,0.3,0.5,0.4,0.8,0.5c0.3,0.1,0.6,0.2,1,0.2h4.1v2.5h-3.5l-0.1,0.4c0.4,0,0.8,0,1,0.1   c0.3,0.1,0.5,0.2,0.6,0.4c0.2,0.2,0.3,0.3,0.3,0.5c0.1,0.2,0.1,0.4,0.1,0.6c0,0.3-0.1,0.6-0.2,0.9c-0.2,0.2-0.4,0.4-0.6,0.6   c-0.3,0.2-0.5,0.3-0.9,0.3c-0.3,0.1-0.7,0.1-1,0.1c-0.4,0-0.8,0-1.1-0.1c-0.4-0.1-0.7-0.2-1.1-0.4V95.5L514.6,95.5z M525,89.8   c0-0.7,0.1-1.3,0.3-1.8c0.2-0.5,0.4-0.9,0.8-1.1c0.3-0.3,0.7-0.5,1.1-0.6c0.4-0.1,0.9-0.2,1.4-0.2h4.4c-0.1-0.7-0.3-1.1-0.8-1.4   c-0.5-0.3-1.1-0.4-1.8-0.4h-4.7v-2.5h5c0.7,0,1.3,0.1,2,0.2c0.6,0.2,1.2,0.4,1.6,0.8c0.5,0.4,0.8,0.8,1.1,1.4   c0.3,0.6,0.4,1.3,0.4,2.1v7.3h-7.3c-0.5,0-1-0.1-1.4-0.2c-0.4-0.1-0.8-0.3-1.1-0.6c-0.3-0.3-0.6-0.7-0.8-1.2   C525.1,91.1,525,90.5,525,89.8L525,89.8z M527.9,89.8c0,0.5,0.1,0.8,0.4,1c0.2,0.2,0.5,0.3,0.9,0.3h3.9v-2.5h-3.9   c-0.3,0-0.6,0.1-0.9,0.3C528,89,527.9,89.3,527.9,89.8z"/>
</g>
</svg>