<?xml version="1.0" encoding="UTF-8"?>
<!DOCTYPE svg PUBLIC "-//W3C//DTD SVG 1.1//EN" "http://www.w3.org/Graphics/SVG/1.1/DTD/svg11.dtd">
<!-- Creator: CorelDRAW -->
<svg xmlns="http://www.w3.org/2000/svg" xml:space="preserve" width="31.2316mm" height="38.7345mm" version="1.1" style="shape-rendering:geometricPrecision; text-rendering:geometricPrecision; image-rendering:optimizeQuality; fill-rule:evenodd; clip-rule:evenodd"
viewBox="0 0 2703.62 3353.12"
 xmlns:xlink="http://www.w3.org/1999/xlink"
 xmlns:xodm="http://www.corel.com/coreldraw/odm/2003">
 <defs>
  <style type="text/css">
   <![CDATA[
    .fil2 {fill:#3575F9}
    .fil3 {fill:#7A48C3}
    .fil5 {fill:#8148D3}
    .fil9 {fill:#EE6263}
    .fil0 {fill:#FDB65E}
    .fil6 {fill:#FF7484}
    .fil1 {fill:#FF7980}
    .fil4 {fill:#FFB84C}
    .fil10 {fill:#FEFEFE;fill-rule:nonzero}
    .fil8 {fill:#EBECEC;fill-opacity:0.290196}
    .fil7 {fill:#3575F9}
   ]]>
  </style>
 </defs>
 <g id="Camada_x0020_1">
  <metadata id="CorelCorpID_0Corel-Layer"/>
  <g id="_2085737012288">
   <circle class="fil0" cx="1291.58" cy="1116.27" r="683.72"/>
   <ellipse class="fil1" cx="176.92" cy="1222.47" rx="176.92" ry="175.52"/>
   <ellipse class="fil2" cx="1944.92" cy="175.52" rx="176.92" ry="175.52"/>
   <ellipse class="fil3" cx="1067.1" cy="3260.26" rx="106" ry="92.86"/>
   <ellipse class="fil4" cx="2075.25" cy="3225.99" rx="106" ry="92.86"/>
   <ellipse class="fil1" cx="2158.98" cy="621.08" rx="106" ry="92.86"/>
   <circle class="fil5" cx="1133.88" cy="2154.69" r="868.37"/>
   <circle class="fil6" cx="2079.8" cy="1531.03" r="623.82"/>
   <path class="fil7" d="M1553.17 850.04c588.7,0 1065.93,490.47 1065.93,1095.5 0,605.03 -477.23,1095.5 -1065.93,1095.5 -588.7,0 -1065.93,-490.47 -1065.93,-1095.5 0,-605.02 477.23,-1095.5 1065.93,-1095.5z"/>
   <path class="fil8" d="M1438.61 791.94c590.16,0 1068.58,478.42 1068.58,1068.58 0,590.16 -478.42,1068.58 -1068.58,1068.58 -590.16,0 -1068.58,-478.42 -1068.58,-1068.58 0,-590.16 478.42,-1068.58 1068.58,-1068.58z"/>
   <circle class="fil9" cx="1383.75" cy="1844.07" r="1015.22"/>
   <path class="fil10" d="M1623.64 1680.77c-0.94,0 -1.88,-0.04 -2.8,-0.12l-1.68 -0.13c-17.79,-1.89 -30.67,-17.85 -28.78,-35.64 0.47,-4.29 0.82,-8.39 1.03,-12.21l0.03 -0.59c0.17,-3.24 0.27,-7.53 0.27,-12.78 0,-57.55 -20.62,-109.39 -53.95,-146.65 -32.47,-36.29 -77.17,-58.76 -126.36,-58.76 -49.19,0 -93.89,22.47 -126.36,58.76 -32.66,36.51 -53.12,87.03 -53.92,143.2l180.28 0c17.93,0 32.46,14.53 32.46,32.46 0,17.93 -14.53,32.46 -32.46,32.46l-211.2 0c-17.5,0 -31.77,-13.85 -32.44,-31.19 -0.44,-4.41 -0.81,-9.06 -1.06,-13.95 -0.36,-6.37 -0.54,-11.82 -0.54,-16.33 0,-73.82 27.02,-140.94 70.69,-189.76 44.53,-49.78 106.24,-80.58 174.54,-80.58 68.3,0 130.01,30.8 174.54,80.58 42.99,48.06 69.84,113.85 70.67,186.31l101.99 0c29.35,0 54.21,11.64 72.98,30.42 18.91,18.91 31.24,45.25 35.1,73.74l86.57 638.47c0.61,4.54 0.91,8.6 0.91,12.14 0,26.41 -11.57,50.13 -29.67,67.96 -16.98,16.72 -40.1,28.27 -64.62,31.6 -5.28,0.72 -10.21,1.09 -14.71,1.09l-867.56 0c-4.5,0 -9.44,-0.38 -14.72,-1.09 -24.51,-3.32 -47.64,-14.87 -64.61,-31.59 -18.09,-17.82 -29.67,-41.54 -29.67,-67.96 0,-3.54 0.3,-7.59 0.91,-12.14l86.57 -638.47c3.86,-28.52 16.19,-54.84 35.09,-73.75 18.78,-18.78 43.63,-30.41 72.99,-30.41 17.93,0 32.46,14.53 32.46,32.46 0,17.93 -14.53,32.46 -32.46,32.46 -10.83,0 -20.07,4.36 -27.1,11.38 -8.96,8.96 -14.87,21.99 -16.83,36.47l-86.57 638.47 -0.15 3.51c0,8.06 3.96,15.72 10.14,21.81 7.3,7.18 17.27,12.15 27.84,13.58 1.59,0.22 3.63,0.33 6.09,0.33l867.56 0c2.47,0 4.5,-0.12 6.09,-0.33 10.58,-1.43 20.56,-6.41 27.85,-13.59 6.18,-6.09 10.14,-13.75 10.14,-21.8l-0.15 -3.51 -86.57 -638.47c-1.96,-14.47 -7.88,-27.5 -16.84,-36.46 -7.03,-7.03 -16.27,-11.39 -27.09,-11.39l-134.97 0z"/>
  </g>
 </g>
</svg>
