<?xml version="1.0" encoding="utf-8"?>
<!-- Generator: Adobe Illustrator 25.0.0, SVG Export Plug-In . SVG Version: 6.00 Build 0)  -->
<svg version="1.1" id="Layer_1" xmlns="http://www.w3.org/2000/svg" xmlns:xlink="http://www.w3.org/1999/xlink" x="0px" y="0px"
	 viewBox="0 0 60 60" style="enable-background:new 0 0 60 60;" xml:space="preserve">
<style type="text/css">
	.st0{fill:#9E3223;}
	.st1{fill:#9B311A;}
</style>
<path class="st0" d="M30,2c15.4,0,28,12.6,28,28S45.4,58,30,58S2,45.4,2,30S14.6,2,30,2 M30,0C13.4,0,0,13.4,0,30s13.4,30,30,30
	s30-13.4,30-30S46.6,0,30,0L30,0z"/>
<g>
	<path class="st1" d="M34.4,31.3l10-10c0.8-0.8,0.8-2,0-2.7l-3-3c0,0,0,0,0,0c-0.4-0.4-0.8-0.6-1.4-0.6c-0.5,0-1,0.2-1.4,0.6l-10,10
		l0.6,0.6l-1.2,1.2l-0.6-0.6l-2,2c-0.8,0.8-0.8,2,0,2.7l0.7,0.7l-8,8l-0.6-0.6L15,42.9l2.1,2.1l3.3-2.7l-0.6-0.6l8-8l0.7,0.7
		c0.8,0.8,2,0.8,2.7,0l2-2l-0.6-0.6l1.2-1.2L34.4,31.3z M30.6,33.8c-0.4,0.4-1.1,0.4-1.5,0l-1.3-1.3l-9.2,9.2l0.5,0.5l-1.9,1.6l-1-1
		l1.5-2l0.5,0.5l9.2-9.2l-1.3-1.3c-0.4-0.4-0.4-1.1,0-1.5l1.4-1.4l4.5,4.5L30.6,33.8z M39.3,16.2c0.2-0.2,0.5-0.3,0.8-0.3
		c0.3,0,0.6,0.1,0.8,0.3c0,0,0,0,0,0l3,3c0.4,0.4,0.4,1.1,0,1.5L34.4,30L30,25.5L39.3,16.2z"/>
	<polygon class="st1" points="41.5,18 32.6,27 33.1,27.4 41.9,18.5 	"/>
</g>
</svg>
