<?xml version="1.0" encoding="utf-8"?>
<!-- Generator: Adobe Illustrator 25.0.0, SVG Export Plug-In . SVG Version: 6.00 Build 0)  -->
<svg version="1.1" id="Layer_1" xmlns="http://www.w3.org/2000/svg" xmlns:xlink="http://www.w3.org/1999/xlink" x="0px" y="0px"
	 viewBox="0 0 60 60" style="enable-background:new 0 0 60 60;" xml:space="preserve">
<style type="text/css">
	.st0{fill:#9E3223;}
	.st1{fill:#9B311A;}
</style>
<path class="st0" d="M30,2c15.4,0,28,12.6,28,28S45.4,58,30,58S2,45.4,2,30S14.6,2,30,2 M30,0C13.4,0,0,13.4,0,30s13.4,30,30,30
	s30-13.4,30-30S46.6,0,30,0L30,0z"/>
<g>
	<path class="st1" d="M21.3,12.5l-4,2.6v32.4h25.4v-35H21.3z M41.4,46.2H18.6V15.8l3.1-2h19.7V46.2z"/>
	<rect x="20.4" y="18.3" class="st1" width="19.3" height="1.3"/>
	<rect x="20.4" y="21.3" class="st1" width="19.3" height="1.3"/>
	<rect x="20.4" y="24.3" class="st1" width="19.3" height="1.3"/>
	<rect x="20.4" y="27.3" class="st1" width="19.3" height="1.3"/>
	<rect x="20.4" y="30.3" class="st1" width="19.3" height="1.3"/>
	<rect x="20.4" y="33.3" class="st1" width="19.3" height="1.3"/>
	<rect x="20.4" y="36.3" class="st1" width="19.3" height="1.3"/>
	<path class="st1" d="M38.2,39.6c0.5,0,0.9,0.1,1.1,0.4l0.3-1.3c-0.4-0.2-0.8-0.3-1.3-0.3c-0.9,0-1.7,0.3-2.3,0.9
		c-0.4,0.4-0.6,0.9-0.8,1.5h-0.5l-0.1,0.7h0.6c0,0.1,0,0.2,0,0.4c0,0.1,0,0.2,0,0.2h-0.4l-0.1,0.7h0.7c0.1,0.6,0.4,1.1,0.8,1.5
		c0.6,0.6,1.3,0.9,2.2,0.9c0.5,0,1-0.1,1.4-0.3v-1.4c-0.3,0.4-0.8,0.5-1.4,0.5c-0.5,0-0.9-0.2-1.2-0.5c-0.2-0.2-0.3-0.4-0.3-0.8h2.1
		l0.1-0.7h-2.3c0-0.1,0-0.2,0-0.3c0-0.1,0-0.2,0-0.3H39l0.1-0.7h-2.5c0.1-0.3,0.2-0.6,0.4-0.8C37.3,39.8,37.7,39.6,38.2,39.6z"/>
</g>
</svg>
