<?xml version="1.0" encoding="utf-8"?>
<!-- Generator: Adobe Illustrator 25.0.0, SVG Export Plug-In . SVG Version: 6.00 Build 0)  -->
<svg version="1.1" id="Layer_1" xmlns="http://www.w3.org/2000/svg" xmlns:xlink="http://www.w3.org/1999/xlink" x="0px" y="0px"
	 viewBox="0 0 60 60" style="enable-background:new 0 0 60 60;" xml:space="preserve">
<style type="text/css">
	.st0{fill:#9E3223;}
</style>
<path class="st0" d="M30,2c15.4,0,28,12.6,28,28S45.4,58,30,58S2,45.4,2,30S14.6,2,30,2 M30,0C13.4,0,0,13.4,0,30s13.4,30,30,30
	s30-13.4,30-30S46.6,0,30,0L30,0z"/>
<g>
	<path class="st0" d="M23.8,34.3v2.3H15c0.1-0.9,0.4-1.7,0.9-2.5c0.5-0.8,1.4-1.8,2.8-3.2c1.1-1.1,1.8-1.8,2.1-2.2
		c0.3-0.5,0.5-1,0.5-1.5c0-0.6-0.2-1-0.5-1.3s-0.7-0.5-1.3-0.5c-0.5,0-0.9,0.2-1.3,0.5c-0.3,0.3-0.5,0.8-0.5,1.6l-2.5-0.3
		c0.1-1.4,0.6-2.4,1.4-3c0.8-0.6,1.8-0.9,3-0.9c1.3,0,2.3,0.4,3.1,1.1c0.7,0.7,1.1,1.6,1.1,2.6c0,0.6-0.1,1.2-0.3,1.7
		c-0.2,0.5-0.5,1.1-1,1.7c-0.3,0.4-0.9,0.9-1.7,1.7c-0.8,0.7-1.3,1.2-1.5,1.5c-0.2,0.2-0.4,0.5-0.5,0.7H23.8z"/>
	<path class="st0" d="M30.5,36.6V34h-5.4v-2.2l5.7-8.4h2.1v8.4h1.6V34h-1.6v2.6H30.5z M30.5,31.7v-4.5l-3,4.5H30.5z"/>
	<path class="st0" d="M38.8,23.4v4.8c0.8-1,1.8-1.4,2.9-1.4c0.6,0,1.1,0.1,1.6,0.3c0.5,0.2,0.8,0.5,1.1,0.8c0.2,0.3,0.4,0.7,0.5,1.1
		s0.1,1,0.1,1.9v5.6h-2.5v-5c0-1,0-1.6-0.1-1.9c-0.1-0.3-0.3-0.5-0.5-0.6c-0.2-0.2-0.5-0.2-0.9-0.2c-0.4,0-0.8,0.1-1.1,0.3
		c-0.3,0.2-0.6,0.5-0.7,0.9c-0.2,0.4-0.2,1-0.2,1.8v4.8h-2.5V23.4H38.8z"/>
</g>
</svg>
